<?xml version="1.0" standalone="no"?>
<!DOCTYPE svg PUBLIC "-//W3C//DTD SVG 20010904//EN"
 "http://www.w3.org/TR/2001/REC-SVG-20010904/DTD/svg10.dtd">
<svg version="1.0" xmlns="http://www.w3.org/2000/svg"
 width="180.000000pt" height="180.000000pt" viewBox="0 0 180.000000 180.000000"
 preserveAspectRatio="xMidYMid meet">
<metadata>
Created by potrace 1.14, written by Peter Selinger 2001-2017
</metadata>
<g transform="translate(0.000000,180.000000) scale(0.100000,-0.100000)"
fill="#000000" stroke="none">
<path d="M25 1775 l-25 -24 0 -851 0 -851 25 -24 24 -25 851 0 851 0 24 25 25
24 0 851 0 851 -25 24 -24 25 -851 0 -851 0 -24 -25z m1076 -305 c176 -54 300
-180 353 -359 24 -82 25 -81 -53 -81 l-69 0 -16 53 c-67 207 -286 320 -509
262 -204 -53 -317 -210 -317 -440 0 -116 24 -200 80 -277 47 -66 139 -131 217
-154 104 -30 275 -14 352 33 80 50 150 140 176 228 l12 40 72 3 72 3 -7 -38
c-36 -201 -186 -356 -393 -409 -92 -23 -263 -16 -351 15 -82 29 -188 99 -240
159 -186 215 -184 591 6 801 148 165 395 229 615 161z m-156 -384 c63 -26 75
-97 26 -147 -48 -47 -126 -36 -157 22 -23 46 -6 101 39 123 40 19 49 20 92 2z
m25 -435 l0 -98 -31 -7 c-17 -3 -49 -3 -70 0 l-39 7 0 98 0 99 70 0 70 0 0
-99z"/>
</g>
</svg>
