<svg width="1544" height="657" viewBox="0 0 1544 657" fill="none" xmlns="http://www.w3.org/2000/svg">
<g clip-path="url(#clip0_7_45)">
<rect width="1544" height="657" fill="#232323"/>
<mask id="mask0_7_45" style="mask-type:alpha" maskUnits="userSpaceOnUse" x="-45" y="166" width="1603" height="387">
<path d="M-40.4998 552.5C-48.1665 521.833 -35.3998 452.8 77.0002 422C217.5 383.5 224 597.5 351 473.5C478 349.5 556 190.5 539.5 171C523 151.5 481.75 240 457 311C432.25 382 381.5 458 402.5 491.5C419.3 518.3 517.833 401.667 565 340C536.833 401.333 490.2 518.6 529 497C567.8 475.4 635.167 383.333 664 340L624.5 497C663.667 426.167 739.9 295.6 731.5 340C721 395.5 681.5 498.5 706.5 479.5C731.5 460.5 865.5 380.5 868 340C869.694 312.552 820.5 337 802 385C790.005 416.123 758.238 476.159 798.5 492C829 504 1015.84 412.491 1141 340C1251.5 276 1452.17 223.333 1555.5 215V231.5" stroke="white" stroke-width="4"/>
</mask>
<g mask="url(#mask0_7_45)">
<path d="M1544 0H0V657H1544V0Z" fill="white"/>
</g>
</g>
<circle cx="576" cy="317" r="4" fill="white"/>
<defs>
<clipPath id="clip0_7_45">
<rect width="1544" height="657" fill="white"/>
</clipPath>
</defs>
</svg>
