<svg width="940" height="400" viewBox="0 0 940 400" fill="none" xmlns="http://www.w3.org/2000/svg">
<rect width="940" height="400" fill="#C90100"/>
<path d="M384.203 180.852L368.734 228H356.273L377.406 171.125H385.336L384.203 180.852ZM397.055 228L381.547 180.852L380.297 171.125H388.305L409.555 228H397.055ZM396.352 206.828V216.008H366.312V206.828H396.352ZM426 168V228H414.711V168H426ZM449.633 228H438.305V181.984C438.305 178.781 438.93 176.086 440.18 173.898C441.456 171.685 443.24 170.018 445.531 168.898C447.849 167.753 450.596 167.18 453.773 167.18C454.815 167.18 455.818 167.258 456.781 167.414C457.745 167.544 458.682 167.714 459.594 167.922L459.477 176.398C458.982 176.268 458.461 176.177 457.914 176.125C457.367 176.073 456.729 176.047 456 176.047C454.646 176.047 453.487 176.281 452.523 176.75C451.586 177.193 450.87 177.857 450.375 178.742C449.88 179.628 449.633 180.708 449.633 181.984V228ZM458.07 185.734V193.703H432.016V185.734H458.07Z" fill="white"/>
<mask id="path-3-outside-1_16_9" maskUnits="userSpaceOnUse" x="469.375" y="163" width="113" height="65" fill="black">
<rect fill="white" x="469.375" y="163" width="113" height="65"/>
<path d="M482.625 191.953V225H471.375V182.734H481.961L482.625 191.953ZM495.359 182.461L495.164 192.891C494.617 192.812 493.953 192.747 493.172 192.695C492.417 192.617 491.727 192.578 491.102 192.578C489.513 192.578 488.133 192.786 486.961 193.203C485.815 193.594 484.852 194.18 484.07 194.961C483.315 195.742 482.742 196.693 482.352 197.812C481.987 198.932 481.779 200.208 481.727 201.641L479.461 200.938C479.461 198.203 479.734 195.69 480.281 193.398C480.828 191.081 481.622 189.062 482.664 187.344C483.732 185.625 485.034 184.297 486.57 183.359C488.107 182.422 489.865 181.953 491.844 181.953C492.469 181.953 493.107 182.005 493.758 182.109C494.409 182.188 494.943 182.305 495.359 182.461ZM519.344 225.781C516.062 225.781 513.12 225.26 510.516 224.219C507.911 223.151 505.698 221.68 503.875 219.805C502.078 217.93 500.698 215.755 499.734 213.281C498.771 210.781 498.289 208.125 498.289 205.312V203.75C498.289 200.547 498.745 197.617 499.656 194.961C500.568 192.305 501.87 190 503.562 188.047C505.281 186.094 507.365 184.596 509.812 183.555C512.26 182.487 515.021 181.953 518.094 181.953C521.089 181.953 523.745 182.448 526.062 183.438C528.38 184.427 530.32 185.833 531.883 187.656C533.471 189.479 534.669 191.667 535.477 194.219C536.284 196.745 536.688 199.557 536.688 202.656V207.344H503.094V199.844H525.633V198.984C525.633 197.422 525.346 196.029 524.773 194.805C524.227 193.555 523.393 192.565 522.273 191.836C521.154 191.107 519.721 190.742 517.977 190.742C516.492 190.742 515.216 191.068 514.148 191.719C513.081 192.37 512.208 193.281 511.531 194.453C510.88 195.625 510.385 197.005 510.047 198.594C509.734 200.156 509.578 201.875 509.578 203.75V205.312C509.578 207.005 509.812 208.568 510.281 210C510.776 211.432 511.466 212.669 512.352 213.711C513.263 214.753 514.357 215.56 515.633 216.133C516.935 216.706 518.406 216.992 520.047 216.992C522.078 216.992 523.966 216.602 525.711 215.82C527.482 215.013 529.005 213.802 530.281 212.188L535.75 218.125C534.865 219.401 533.654 220.625 532.117 221.797C530.607 222.969 528.784 223.932 526.648 224.688C524.513 225.417 522.078 225.781 519.344 225.781ZM568.055 215.781V165H579.383V225H569.188L568.055 215.781ZM541.336 204.375V203.555C541.336 200.326 541.701 197.396 542.43 194.766C543.159 192.109 544.227 189.831 545.633 187.93C547.039 186.029 548.771 184.557 550.828 183.516C552.885 182.474 555.229 181.953 557.859 181.953C560.333 181.953 562.495 182.474 564.344 183.516C566.219 184.557 567.807 186.042 569.109 187.969C570.438 189.87 571.505 192.122 572.312 194.727C573.12 197.305 573.706 200.13 574.07 203.203V205C573.706 207.943 573.12 210.677 572.312 213.203C571.505 215.729 570.438 217.943 569.109 219.844C567.807 221.719 566.219 223.177 564.344 224.219C562.469 225.26 560.281 225.781 557.781 225.781C555.151 225.781 552.807 225.247 550.75 224.18C548.719 223.112 547 221.615 545.594 219.688C544.214 217.76 543.159 215.495 542.43 212.891C541.701 210.286 541.336 207.448 541.336 204.375ZM552.586 203.555V204.375C552.586 206.12 552.716 207.747 552.977 209.258C553.263 210.768 553.719 212.109 554.344 213.281C554.995 214.427 555.828 215.326 556.844 215.977C557.885 216.602 559.148 216.914 560.633 216.914C562.56 216.914 564.148 216.484 565.398 215.625C566.648 214.74 567.599 213.529 568.25 211.992C568.927 210.456 569.318 208.685 569.422 206.68V201.562C569.344 199.922 569.109 198.451 568.719 197.148C568.354 195.82 567.807 194.688 567.078 193.75C566.375 192.812 565.49 192.083 564.422 191.562C563.38 191.042 562.143 190.781 560.711 190.781C559.253 190.781 558.003 191.12 556.961 191.797C555.919 192.448 555.073 193.346 554.422 194.492C553.797 195.638 553.328 196.992 553.016 198.555C552.729 200.091 552.586 201.758 552.586 203.555Z"/>
</mask>
<path d="M482.625 191.953H484.625V191.881L484.62 191.809L482.625 191.953ZM482.625 225V227H484.625V225H482.625ZM471.375 225H469.375V227H471.375V225ZM471.375 182.734V180.734H469.375V182.734H471.375ZM481.961 182.734L483.956 182.591L483.822 180.734H481.961V182.734ZM495.359 182.461L497.359 182.498L497.385 181.085L496.062 180.588L495.359 182.461ZM495.164 192.891L494.881 194.871L497.121 195.191L497.164 192.928L495.164 192.891ZM493.172 192.695L492.966 194.685L493.002 194.688L493.039 194.691L493.172 192.695ZM486.961 193.203L487.606 195.096L487.619 195.092L487.631 195.088L486.961 193.203ZM484.07 194.961L482.656 193.547L482.644 193.559L482.632 193.571L484.07 194.961ZM482.352 197.812L480.463 197.154L480.456 197.173L480.45 197.193L482.352 197.812ZM481.727 201.641L481.134 203.551L483.63 204.326L483.725 201.713L481.727 201.641ZM479.461 200.938H477.461V202.411L478.868 202.848L479.461 200.938ZM480.281 193.398L482.227 193.863L482.228 193.858L480.281 193.398ZM482.664 187.344L480.965 186.288L480.959 186.298L480.954 186.307L482.664 187.344ZM493.758 182.109L493.442 184.084L493.481 184.09L493.52 184.095L493.758 182.109ZM510.516 224.219L509.757 226.069L509.765 226.073L509.773 226.076L510.516 224.219ZM503.875 219.805L502.431 221.188L502.436 221.194L502.441 221.199L503.875 219.805ZM499.734 213.281L497.868 214.001L497.871 214.007L499.734 213.281ZM503.562 188.047L502.061 186.726L502.056 186.731L502.051 186.737L503.562 188.047ZM509.812 183.555L510.596 185.395L510.604 185.391L510.612 185.388L509.812 183.555ZM531.883 187.656L530.364 188.958L530.37 188.964L530.375 188.97L531.883 187.656ZM535.477 194.219L533.57 194.822L533.571 194.828L535.477 194.219ZM536.688 207.344V209.344H538.688V207.344H536.688ZM503.094 207.344H501.094V209.344H503.094V207.344ZM503.094 199.844V197.844H501.094V199.844H503.094ZM525.633 199.844V201.844H527.633V199.844H525.633ZM524.773 194.805L522.941 195.606L522.951 195.63L522.962 195.653L524.773 194.805ZM511.531 194.453L509.8 193.453L509.791 193.467L509.783 193.482L511.531 194.453ZM510.047 198.594L508.091 198.177L508.088 198.189L508.086 198.202L510.047 198.594ZM510.281 210L508.38 210.622L508.386 210.638L508.391 210.653L510.281 210ZM512.352 213.711L510.828 215.006L510.837 215.017L510.846 215.028L512.352 213.711ZM515.633 216.133L514.814 217.957L514.82 217.96L514.827 217.963L515.633 216.133ZM525.711 215.82L526.528 217.646L526.541 217.64L525.711 215.82ZM530.281 212.188L531.752 210.833L530.165 209.109L528.712 210.947L530.281 212.188ZM535.75 218.125L537.393 219.265L538.307 217.949L537.221 216.77L535.75 218.125ZM532.117 221.797L530.904 220.207L530.898 220.212L530.891 220.217L532.117 221.797ZM526.648 224.688L527.295 226.58L527.305 226.577L527.315 226.573L526.648 224.688ZM568.055 215.781H566.055V215.904L566.07 216.025L568.055 215.781ZM568.055 165V163H566.055V165H568.055ZM579.383 165H581.383V163H579.383V165ZM579.383 225V227H581.383V225H579.383ZM569.188 225L567.202 225.244L567.418 227H569.188V225ZM542.43 194.766L544.357 195.3L544.358 195.295L542.43 194.766ZM564.344 183.516L563.362 185.258L563.372 185.264L564.344 183.516ZM569.109 187.969L567.452 189.088L567.461 189.101L567.47 189.114L569.109 187.969ZM572.312 194.727L570.402 195.319L570.404 195.324L572.312 194.727ZM574.07 203.203H576.07V203.085L576.056 202.967L574.07 203.203ZM574.07 205L576.055 205.246L576.07 205.123V205H574.07ZM569.109 219.844L567.47 218.698L567.467 218.703L569.109 219.844ZM550.75 224.18L549.819 225.95L549.829 225.955L550.75 224.18ZM545.594 219.688L543.968 220.852L543.973 220.859L543.978 220.866L545.594 219.688ZM552.977 209.258L551.006 209.598L551.008 209.614L551.012 209.63L552.977 209.258ZM554.344 213.281L552.579 214.222L552.592 214.246L552.605 214.269L554.344 213.281ZM556.844 215.977L555.764 217.66L555.789 217.676L555.815 217.692L556.844 215.977ZM565.398 215.625L566.531 217.273L566.543 217.265L566.554 217.257L565.398 215.625ZM568.25 211.992L566.42 211.186L566.414 211.199L566.408 211.212L568.25 211.992ZM569.422 206.68L571.419 206.783L571.422 206.732V206.68H569.422ZM569.422 201.562H571.422V201.515L571.42 201.467L569.422 201.562ZM568.719 197.148L566.79 197.678L566.796 197.701L566.803 197.723L568.719 197.148ZM567.078 193.75L565.478 194.95L565.489 194.964L565.499 194.978L567.078 193.75ZM564.422 191.562L563.527 193.351L563.536 193.356L563.545 193.36L564.422 191.562ZM556.961 191.797L558.021 193.493L558.036 193.483L558.051 193.474L556.961 191.797ZM554.422 194.492L552.683 193.504L552.674 193.519L552.666 193.534L554.422 194.492ZM553.016 198.555L551.054 198.162L551.052 198.175L551.05 198.188L553.016 198.555ZM480.625 191.953V225H484.625V191.953H480.625ZM482.625 223H471.375V227H482.625V223ZM473.375 225V182.734H469.375V225H473.375ZM471.375 184.734H481.961V180.734H471.375V184.734ZM479.966 182.878L480.63 192.097L484.62 191.809L483.956 182.591L479.966 182.878ZM493.36 182.423L493.164 192.853L497.164 192.928L497.359 182.498L493.36 182.423ZM495.447 190.911C494.835 190.823 494.117 190.754 493.305 190.7L493.039 194.691C493.789 194.741 494.4 194.802 494.881 194.871L495.447 190.911ZM493.378 190.706C492.568 190.622 491.808 190.578 491.102 190.578V194.578C491.645 194.578 492.265 194.612 492.966 194.685L493.378 190.706ZM491.102 190.578C489.345 190.578 487.728 190.808 486.291 191.319L487.631 195.088C488.537 194.765 489.681 194.578 491.102 194.578V190.578ZM486.316 191.31C484.908 191.79 483.674 192.529 482.656 193.547L485.485 196.375C486.029 195.83 486.722 195.398 487.606 195.096L486.316 191.31ZM482.632 193.571C481.658 194.579 480.94 195.786 480.463 197.154L484.24 198.471C484.544 197.6 484.972 196.906 485.508 196.351L482.632 193.571ZM480.45 197.193C480.017 198.523 479.785 199.989 479.728 201.568L483.725 201.713C483.772 200.428 483.957 199.341 484.253 198.432L480.45 197.193ZM482.319 199.73L480.054 199.027L478.868 202.848L481.134 203.551L482.319 199.73ZM481.461 200.938C481.461 198.335 481.721 195.98 482.227 193.863L478.336 192.934C477.747 195.4 477.461 198.071 477.461 200.938H481.461ZM482.228 193.858C482.735 191.707 483.459 189.891 484.374 188.38L480.954 186.307C479.786 188.234 478.921 190.454 478.335 192.939L482.228 193.858ZM484.363 188.399C485.286 186.913 486.374 185.822 487.612 185.067L485.529 181.652C483.694 182.772 482.177 184.337 480.965 186.288L484.363 188.399ZM487.612 185.067C488.804 184.339 490.194 183.953 491.844 183.953V179.953C489.535 179.953 487.41 180.504 485.529 181.652L487.612 185.067ZM491.844 183.953C492.357 183.953 492.89 183.996 493.442 184.084L494.074 180.134C493.324 180.015 492.58 179.953 491.844 179.953V183.953ZM493.52 184.095C494.079 184.162 494.442 184.253 494.657 184.334L496.062 180.588C495.443 180.356 494.739 180.213 493.996 180.124L493.52 184.095ZM519.344 223.781C516.274 223.781 513.59 223.294 511.258 222.362L509.773 226.076C512.65 227.226 515.851 227.781 519.344 227.781V223.781ZM511.274 222.368C508.905 221.397 506.926 220.074 505.309 218.411L502.441 221.199C504.47 223.285 506.918 224.905 509.757 226.069L511.274 222.368ZM505.319 218.421C503.708 216.74 502.468 214.79 501.598 212.555L497.871 214.007C498.927 216.72 500.448 219.12 502.431 221.188L505.319 218.421ZM501.601 212.562C500.73 210.303 500.289 207.891 500.289 205.312H496.289C496.289 208.359 496.812 211.26 497.868 214.001L501.601 212.562ZM500.289 205.312V203.75H496.289V205.312H500.289ZM500.289 203.75C500.289 200.737 500.718 198.03 501.548 195.61L497.765 194.312C496.772 197.204 496.289 200.357 496.289 203.75H500.289ZM501.548 195.61C502.383 193.175 503.563 191.1 505.074 189.357L502.051 186.737C500.176 188.9 498.752 191.434 497.765 194.312L501.548 195.61ZM505.064 189.368C506.581 187.645 508.417 186.322 510.596 185.395L509.029 181.714C506.313 182.87 503.982 184.543 502.061 186.726L505.064 189.368ZM510.612 185.388C512.773 184.446 515.255 183.953 518.094 183.953V179.953C514.787 179.953 511.748 180.528 509.013 181.721L510.612 185.388ZM518.094 183.953C520.869 183.953 523.25 184.411 525.277 185.277L526.848 181.598C524.24 180.485 521.309 179.953 518.094 179.953V183.953ZM525.277 185.277C527.327 186.152 529.012 187.38 530.364 188.958L533.401 186.355C531.629 184.287 529.434 182.702 526.848 181.598L525.277 185.277ZM530.375 188.97C531.765 190.565 532.836 192.504 533.57 194.822L537.383 193.616C536.502 190.83 535.178 188.393 533.391 186.342L530.375 188.97ZM533.571 194.828C534.306 197.127 534.688 199.73 534.688 202.656H538.688C538.688 199.385 538.261 196.363 537.382 193.61L533.571 194.828ZM534.688 202.656V207.344H538.688V202.656H534.688ZM536.688 205.344H503.094V209.344H536.688V205.344ZM505.094 207.344V199.844H501.094V207.344H505.094ZM503.094 201.844H525.633V197.844H503.094V201.844ZM527.633 199.844V198.984H523.633V199.844H527.633ZM527.633 198.984C527.633 197.174 527.3 195.485 526.585 193.957L522.962 195.653C523.393 196.573 523.633 197.669 523.633 198.984H527.633ZM526.606 194.003C525.906 192.404 524.819 191.107 523.365 190.16L521.182 193.512C521.968 194.023 522.547 194.706 522.941 195.606L526.606 194.003ZM523.365 190.16C521.835 189.164 519.992 188.742 517.977 188.742V192.742C519.451 192.742 520.473 193.05 521.182 193.512L523.365 190.16ZM517.977 188.742C516.194 188.742 514.543 189.136 513.107 190.011L515.19 193.426C515.889 193 516.79 192.742 517.977 192.742V188.742ZM513.107 190.011C511.731 190.851 510.63 192.015 509.8 193.453L513.263 195.454C513.787 194.547 514.431 193.889 515.19 193.426L513.107 190.011ZM509.783 193.482C509.018 194.859 508.462 196.434 508.091 198.177L512.003 199.011C512.309 197.577 512.743 196.391 513.28 195.424L509.783 193.482ZM508.086 198.202C507.743 199.913 507.578 201.766 507.578 203.75H511.578C511.578 201.984 511.725 200.399 512.008 198.986L508.086 198.202ZM507.578 203.75V205.312H511.578V203.75H507.578ZM507.578 205.312C507.578 207.191 507.838 208.966 508.38 210.622L512.182 209.378C511.787 208.17 511.578 206.82 511.578 205.312H507.578ZM508.391 210.653C508.958 212.295 509.765 213.756 510.828 215.006L513.875 212.416C513.168 211.583 512.594 210.57 512.172 209.347L508.391 210.653ZM510.846 215.028C511.949 216.289 513.278 217.268 514.814 217.957L516.452 214.308C515.436 213.852 514.577 213.217 513.857 212.394L510.846 215.028ZM514.827 217.963C516.419 218.664 518.171 218.992 520.047 218.992V214.992C518.641 214.992 517.451 214.748 516.438 214.302L514.827 217.963ZM520.047 218.992C522.342 218.992 524.51 218.549 526.528 217.646L524.894 213.995C523.422 214.654 521.814 214.992 520.047 214.992V218.992ZM526.541 217.64C528.617 216.693 530.389 215.277 531.85 213.428L528.712 210.947C527.621 212.327 526.347 213.333 524.881 214L526.541 217.64ZM528.81 213.542L534.279 219.48L537.221 216.77L531.752 210.833L528.81 213.542ZM534.107 216.985C533.365 218.053 532.314 219.132 530.904 220.207L533.33 223.387C534.994 222.118 536.364 220.749 537.393 219.265L534.107 216.985ZM530.891 220.217C529.578 221.236 527.952 222.105 525.982 222.802L527.315 226.573C529.616 225.759 531.636 224.702 533.343 223.377L530.891 220.217ZM526.002 222.795C524.114 223.44 521.903 223.781 519.344 223.781V227.781C522.253 227.781 524.913 227.394 527.295 226.58L526.002 222.795ZM570.055 215.781V165H566.055V215.781H570.055ZM568.055 167H579.383V163H568.055V167ZM577.383 165V225H581.383V165H577.383ZM579.383 223H569.188V227H579.383V223ZM571.173 224.756L570.04 215.537L566.07 216.025L567.202 225.244L571.173 224.756ZM543.336 204.375V203.555H539.336V204.375H543.336ZM543.336 203.555C543.336 200.474 543.684 197.728 544.357 195.3L540.502 194.231C539.717 197.064 539.336 200.177 539.336 203.555H543.336ZM544.358 195.295C545.033 192.838 546.003 190.792 547.241 189.119L544.025 186.74C542.45 188.869 541.285 191.381 540.501 194.236L544.358 195.295ZM547.241 189.119C548.467 187.462 549.959 186.197 551.732 185.3L549.925 181.731C547.582 182.917 545.612 184.595 544.025 186.74L547.241 189.119ZM551.732 185.3C553.472 184.419 555.499 183.953 557.859 183.953V179.953C554.96 179.953 552.299 180.529 549.925 181.731L551.732 185.3ZM557.859 183.953C560.047 183.953 561.859 184.411 563.362 185.258L565.325 181.773C563.13 180.537 560.62 179.953 557.859 179.953V183.953ZM563.372 185.264C564.95 186.14 566.311 187.4 567.452 189.088L570.767 186.849C569.304 184.684 567.488 182.974 565.315 181.767L563.372 185.264ZM567.47 189.114C568.661 190.819 569.646 192.878 570.402 195.319L574.223 194.134C573.365 191.367 572.214 188.92 570.749 186.823L567.47 189.114ZM570.404 195.324C571.169 197.769 571.732 200.471 572.084 203.439L576.056 202.967C575.679 199.789 575.07 196.841 574.221 194.129L570.404 195.324ZM572.07 203.203V205H576.07V203.203H572.07ZM572.085 204.754C571.734 207.588 571.173 210.199 570.407 212.594L574.218 213.812C575.067 211.155 575.677 208.298 576.055 205.246L572.085 204.754ZM570.407 212.594C569.653 214.956 568.668 216.983 567.47 218.698L570.749 220.989C572.207 218.902 573.358 216.502 574.218 213.812L570.407 212.594ZM567.467 218.703C566.328 220.343 564.963 221.587 563.372 222.47L565.315 225.967C567.474 224.767 569.287 223.094 570.752 220.985L567.467 218.703ZM563.372 222.47C561.84 223.322 559.998 223.781 557.781 223.781V227.781C560.564 227.781 563.097 227.199 565.315 225.967L563.372 222.47ZM557.781 223.781C555.428 223.781 553.408 223.306 551.671 222.405L549.829 225.955C552.207 227.189 554.874 227.781 557.781 227.781V223.781ZM551.681 222.409C549.931 221.49 548.443 220.199 547.209 218.509L543.978 220.866C545.557 223.03 547.507 224.734 549.819 225.95L551.681 222.409ZM547.22 218.523C545.993 216.81 545.031 214.762 544.356 212.351L540.504 213.43C541.287 216.227 542.434 218.711 543.968 220.852L547.22 218.523ZM544.356 212.351C543.682 209.945 543.336 207.29 543.336 204.375H539.336C539.336 207.606 539.719 210.628 540.504 213.43L544.356 212.351ZM550.586 203.555V204.375H554.586V203.555H550.586ZM550.586 204.375C550.586 206.218 550.723 207.961 551.006 209.598L554.947 208.918C554.709 207.534 554.586 206.021 554.586 204.375H550.586ZM551.012 209.63C551.33 211.309 551.845 212.847 552.579 214.222L556.108 212.34C555.592 211.372 555.196 210.228 554.942 208.885L551.012 209.63ZM552.605 214.269C553.401 215.67 554.451 216.818 555.764 217.66L557.923 214.293C557.205 213.833 556.589 213.184 556.083 212.293L552.605 214.269ZM555.815 217.692C557.23 218.54 558.866 218.914 560.633 218.914V214.914C559.431 214.914 558.541 214.663 557.873 214.262L555.815 217.692ZM560.633 218.914C562.855 218.914 564.868 218.417 566.531 217.273L564.265 213.977C563.429 214.552 562.265 214.914 560.633 214.914V218.914ZM566.554 217.257C568.135 216.138 569.309 214.619 570.092 212.772L566.408 211.212C565.889 212.438 565.162 213.341 564.242 213.993L566.554 217.257ZM570.08 212.799C570.872 211.001 571.305 208.985 571.419 206.783L567.425 206.576C567.331 208.385 566.982 209.91 566.42 211.186L570.08 212.799ZM571.422 206.68V201.562H567.422V206.68H571.422ZM571.42 201.467C571.335 199.697 571.08 198.06 570.634 196.574L566.803 197.723C567.138 198.841 567.352 200.147 567.424 201.658L571.42 201.467ZM570.647 196.619C570.224 195.077 569.571 193.698 568.657 192.522L565.499 194.978C566.044 195.677 566.484 196.563 566.79 197.678L570.647 196.619ZM568.678 192.55C567.782 191.355 566.647 190.423 565.299 189.765L563.545 193.36C564.332 193.744 564.968 194.27 565.478 194.95L568.678 192.55ZM565.316 189.774C563.94 189.086 562.384 188.781 560.711 188.781V192.781C561.903 192.781 562.82 192.998 563.527 193.351L565.316 189.774ZM560.711 188.781C558.934 188.781 557.29 189.198 555.871 190.12L558.051 193.474C558.715 193.042 559.571 192.781 560.711 192.781V188.781ZM555.901 190.101C554.557 190.941 553.486 192.091 552.683 193.504L556.161 195.48C556.66 194.601 557.281 193.955 558.021 193.493L555.901 190.101ZM552.666 193.534C551.926 194.891 551.398 196.444 551.054 198.162L554.977 198.947C555.258 197.54 555.668 196.385 556.178 195.45L552.666 193.534ZM551.05 198.188C550.737 199.862 550.586 201.653 550.586 203.555H554.586C554.586 201.863 554.721 200.32 554.982 198.921L551.05 198.188Z" fill="white" mask="url(#path-3-outside-1_16_9)"/>
<path d="M504.984 200.854C504.984 211.867 505.306 200.854 504.614 200.854C503.533 200.854 502.462 202.074 502.779 203.183C503.052 204.137 504.737 202.93 504.737 204.059" stroke="#C90100" stroke-width="3" stroke-linecap="round"/>
<path d="M510.201 201.83C509.271 201.83 508.341 201.83 507.411 201.83C506.964 201.83 506.556 201.712 506.117 201.648C506.003 201.631 505.677 201.632 505.677 201.463C505.677 201.397 505.751 201.175 505.822 201.155C506.073 201.083 506.435 201.152 506.695 201.152C507.032 201.152 507.369 201.152 507.707 201.152C507.994 201.152 508.848 201.265 508.561 201.265" stroke="#C90100" stroke-width="3" stroke-linecap="round"/>
<path d="M510.936 204.261C509.805 204.261 508.674 204.261 507.543 204.261C506.922 204.261 506.249 204.335 505.63 204.258C505.454 204.236 506.067 203.935 506.098 203.922C506.885 203.587 507.728 203.326 508.548 203.086C508.645 203.058 509.306 202.907 509.18 202.955C507.835 203.459 506.44 203.795 505.056 204.17C504.159 204.413 503.268 204.691 502.364 204.905C502.25 204.932 502.056 204.942 502.229 205.028C502.485 205.156 502.657 205.387 502.938 205.461C503.805 205.689 504.69 205.675 505.577 205.675C506.781 205.675 508.011 205.647 509.211 205.559C509.417 205.543 509.728 205.521 509.918 205.436C510.005 205.397 510.065 205.392 510.163 205.392C510.253 205.392 509.981 205.379 509.893 205.395C509.548 205.458 509.23 205.731 508.9 205.857C508.493 206.012 508.141 206.155 507.713 206.228C507.138 206.325 506.597 206.353 506.017 206.353C505.73 206.353 505.443 206.353 505.156 206.353C504.779 206.353 504.402 206.375 504.038 206.479C503.832 206.538 503.633 206.636 503.416 206.636" stroke="#C90100" stroke-width="3" stroke-linecap="round"/>
<path d="M479.782 191.879C480.462 191.566 481.053 191.101 481.635 190.635C481.925 190.403 482.151 190.095 482.44 189.869C482.733 189.638 483.036 189.484 483.344 189.278" stroke="#C90100" stroke-width="3" stroke-linecap="round"/>
<path d="M482.666 189.109H483.627" stroke="#C90100" stroke-width="3" stroke-linecap="round"/>
<path d="M483.231 191.936C482.816 192.1 482.467 192.347 482.113 192.62C481.291 193.254 480.5 193.953 479.842 194.759C479.457 195.232 479.15 195.765 478.821 196.277C478.698 196.468 478.6 196.72 478.516 196.933C478.485 197.012 478.426 197.192 478.494 197.012C478.548 196.869 478.668 196.74 478.758 196.622C479.138 196.129 479.532 195.643 479.958 195.19C480.567 194.541 481.218 193.926 481.843 193.293C482.126 193.005 482.403 192.777 482.766 192.595C482.909 192.524 482.855 192.63 482.81 192.721C482.664 193.021 482.516 193.32 482.374 193.622C481.885 194.664 481.399 195.713 480.885 196.741C480.802 196.906 480.586 197.126 480.574 197.307C480.567 197.401 480.563 197.109 480.605 197.024C480.71 196.815 480.919 196.73 480.973 196.487C480.999 196.368 481.149 196.119 481.252 196.119" stroke="#C90100" stroke-width="3" stroke-linecap="round"/>
<path d="M480.97 204.374C480.97 201.797 480.891 199.206 481.023 196.632C481.041 196.279 481.137 196.574 480.941 196.77C480.786 196.925 480.703 197.229 480.586 197.42C480.407 197.714 480.248 198.02 480.065 198.312C479.852 198.651 479.632 199.221 479.613 199.625C479.591 200.087 479.443 201.463 479.443 201.001C479.443 200.081 480.073 199.199 480.429 198.391C480.553 198.111 480.703 197.742 480.856 197.489C481.048 197.173 481.102 196.769 481.309 196.459" stroke="#C90100" stroke-width="3" stroke-linecap="round"/>
<path d="M511.024 201.393C510.812 201.393 510.601 201.393 510.39 201.393C510.327 201.393 510.265 201.378 510.202 201.377C510.183 201.376 510.125 201.387 510.107 201.373C510.048 201.326 509.875 201.344 509.795 201.344C509.657 201.344 509.233 201.532 509.233 201.278" stroke="#C90100" stroke-width="3" stroke-linecap="round"/>
<path d="M510.416 205.582C510.346 205.604 510.271 205.63 510.211 205.674C510.189 205.69 510.167 205.719 510.143 205.73C510.089 205.754 510.03 205.776 509.98 205.804C509.958 205.817 509.897 205.844 509.874 205.845C509.835 205.847 509.813 205.812 509.775 205.812" stroke="#C90100" stroke-width="3" stroke-linecap="round"/>
<path d="M507.262 206.108C507.348 206.221 507.445 206.304 507.537 206.407C507.608 206.486 507.69 206.53 507.775 206.597C507.792 206.611 507.991 206.734 507.997 206.729C508.057 206.682 508.251 206.716 508.329 206.716" stroke="#C90100" stroke-width="3" stroke-linecap="round"/>
<path d="M575.286 212.371C575.286 208.625 575.574 204.78 574.946 201.075C574.913 200.882 574.814 200.797 574.645 200.703C574.602 200.68 574.519 200.624 574.471 200.624C574.424 200.624 574.428 200.724 574.427 200.723C574.369 200.694 574.329 201.102 574.328 201.107C574.208 201.775 574.036 202.43 573.936 203.102C573.614 205.279 573.648 207.477 573.648 209.671C573.648 210.721 573.599 211.761 573.505 212.806C573.47 213.202 573.434 213.599 573.434 213.997C573.434 214.219 573.415 214.033 573.398 213.918C573.096 211.862 573.291 209.67 573.291 207.602C573.291 205.408 573.291 203.214 573.291 201.02C573.291 200.069 573.362 199.087 573.276 198.139C573.229 197.625 573.042 197.14 573.006 196.623C572.959 195.935 572.961 195.265 572.935 194.577C572.903 193.716 572.65 192.8 572.65 191.925C572.65 191.664 572.471 191.249 572.152 191.284C571.659 191.339 572.38 194.608 572.468 195.06C572.679 196.144 572.713 197.401 572.721 198.495C572.736 200.405 572.823 202.273 573.042 204.174C573.17 205.283 573.326 206.388 573.394 207.503C573.487 209.031 573.434 210.571 573.434 212.101C573.434 212.913 573.351 213.702 573.276 214.508C573.222 215.083 573.194 215.708 573.042 216.265C572.947 216.613 572.57 218.013 571.938 217.698C571.702 217.58 571.64 216.857 571.582 216.645C571.324 215.712 571.297 214.78 571.297 213.819C571.297 210.408 571.439 207.007 571.439 203.593C571.439 201.141 571.624 198.726 571.795 196.283C571.898 194.82 572.059 193.362 572.152 191.898C572.188 191.328 572.294 190.755 572.294 190.184C572.294 189.978 572.421 189.25 572.278 189.092C572.195 188.999 571.664 189.029 571.518 188.973C571.183 188.843 571.252 189.341 571.186 189.571C571.029 190.113 570.782 190.59 570.656 191.142C570.339 192.527 570.086 193.905 570.086 195.329C570.086 196.653 570.371 197.977 570.371 199.31C570.371 200.106 570.518 200.944 570.66 201.725C570.863 202.845 570.727 204.075 570.727 205.215C570.727 206.713 570.75 208.218 570.802 209.715C570.834 210.613 571.109 211.389 571.21 212.252C571.444 214.258 571.439 216.332 571.439 218.355" stroke="#C90100" stroke-width="3" stroke-linecap="round"/>
<path d="M569.076 218.282C568.909 218.315 568.872 218.25 568.872 218.402C568.872 218.49 568.954 218.526 568.972 218.606C569 218.732 568.94 219.119 568.94 218.991C568.94 218.568 568.867 218.067 568.957 217.655C568.998 217.467 569.029 217.259 569.042 217.068C569.048 216.982 569.179 216.24 569.093 216.287C569.012 216.332 569.046 215.598 569.05 215.539C569.07 215.204 569.166 214.895 569.239 214.573C569.304 214.289 569.345 214.043 569.485 213.796C569.549 213.685 569.651 213.603 569.709 213.489C569.774 213.364 569.822 213.227 569.895 213.107C570.019 212.902 569.997 212.647 569.997 212.417" stroke="#C90100" stroke-width="3" stroke-linecap="round"/>
<path d="M569.554 208.496C569.554 209.232 569.554 209.968 569.554 210.705C569.554 210.795 569.556 210.855 569.588 210.94C569.656 211.124 569.743 211.396 569.758 211.591C569.762 211.643 569.824 211.685 569.827 211.735C569.83 211.803 569.827 211.872 569.827 211.94C569.827 212.105 569.829 212.31 569.758 212.451" stroke="#C90100" stroke-width="3" stroke-linecap="round"/>
<path d="M570.288 213.2C570.111 213.2 569.938 213.189 569.763 213.189C569.714 213.189 569.673 213.178 569.627 213.178C569.598 213.178 569.573 213.178 569.546 213.191C569.537 213.195 569.502 213.221 569.519 213.221" stroke="#C90100" stroke-width="3" stroke-linecap="round"/>
<path d="M569.617 212.929C569.567 212.91 569.543 212.897 569.492 212.897C569.471 212.897 569.527 212.867 569.541 212.853" stroke="#C90100" stroke-width="3" stroke-linecap="round"/>
<path d="M569.692 212.344C569.649 212.344 569.519 212.355 569.562 212.355" stroke="#C90100" stroke-width="3" stroke-linecap="round"/>
<path d="M571.806 190.27C571.018 190.27 570.235 190.237 569.449 190.237C569.178 190.237 568.918 190.253 568.651 190.268C568.223 190.292 567.602 190.364 567.207 190.172C567.177 190.158 567.129 190.082 567.167 190.05C567.22 190.005 567.362 189.985 567.42 189.97C567.731 189.892 568.049 189.839 568.366 189.79C569.12 189.672 569.838 189.587 570.599 189.587C570.881 189.587 570.702 189.587 570.514 189.587C569.768 189.587 569.022 189.591 568.276 189.587C568.194 189.587 567.589 189.624 567.582 189.49C567.573 189.304 568.063 189.279 568.16 189.264C568.659 189.187 569.177 189.151 569.682 189.134C569.718 189.133 569.979 189.135 569.944 189.131C569.446 189.076 568.952 189.043 568.451 189.037C568.152 189.033 567.852 189.035 567.553 189.035C567.521 189.035 567.269 189.065 567.239 189.035C567.193 188.989 567.367 189.008 567.431 188.995C567.741 188.932 568.054 188.883 568.366 188.833C569.064 188.721 569.776 188.683 570.471 188.555C570.7 188.513 570.774 188.487 570.489 188.483C569.736 188.472 568.983 188.446 568.23 188.418C568.022 188.41 567.813 188.385 567.604 188.385C567.562 188.385 567.686 188.374 567.727 188.364C567.951 188.308 568.172 188.242 568.396 188.187C569.07 188.02 569.742 187.847 570.413 187.672C570.536 187.64 570.657 187.604 570.781 187.577C570.878 187.555 570.583 187.593 570.485 187.605C569.919 187.679 569.364 187.842 568.803 187.948C568.653 187.977 568.501 187.996 568.351 188.028C568.307 188.037 568.18 188.084 568.218 188.059C568.31 187.997 568.082 188.018 568.167 188.06" stroke="#C90100" stroke-width="3" stroke-linecap="round"/>
<path d="M567.94 191.83C568.371 191.83 568.76 191.959 569.156 192.129C569.696 192.361 570.26 192.687 570.72 193.055C570.887 193.189 570.548 193.171 570.471 193.18C570.233 193.208 569.963 193.246 569.734 193.317C569.613 193.355 569.852 193.877 569.662 193.877C569.54 193.877 569.53 193.62 569.483 193.535C569.477 193.525 569.374 193.329 569.369 193.339C569.339 193.399 569.416 193.526 569.427 193.584C569.455 193.734 569.521 193.849 569.582 193.989C569.603 194.035 569.759 194.283 569.759 194.267" stroke="#C90100" stroke-width="3" stroke-linecap="round"/>
<path d="M569.568 198.086C569.568 197.807 569.548 197.528 569.548 197.253C569.548 197.002 569.568 196.757 569.568 196.506C569.568 196.311 569.641 196.141 569.665 195.948C569.671 195.898 569.693 195.85 569.704 195.799C569.721 195.723 569.689 195.645 569.725 195.574" stroke="#C90100" stroke-width="3" stroke-linecap="round"/>
<path d="M570.372 193.807C570.166 193.82 569.391 193.893 569.391 194.259C569.391 194.33 569.449 194.445 569.509 194.416" stroke="#C90100" stroke-width="3" stroke-linecap="round"/>
<path d="M569.509 194.435C569.495 194.508 569.469 194.56 569.469 194.631C569.469 194.678 569.489 194.708 569.489 194.749" stroke="#C90100" stroke-width="3" stroke-linecap="round"/>
<path d="M569.489 194.749C569.489 194.803 569.491 194.843 569.469 194.887" stroke="#C90100" stroke-width="3" stroke-linecap="round"/>
</svg>
