<svg width="940" height="400" viewBox="0 0 940 400" fill="none" xmlns="http://www.w3.org/2000/svg">
<rect width="940" height="400" fill="#272727"/>
<path d="M391.906 172.25H394.156V224H391.906V172.25ZM405.406 172.25H407.656V212.75H425.656V215H407.656V217.25H425.656V219.5H407.656V221.75H425.656V224H405.406V172.25ZM400.906 172.25H403.156V224H400.906V172.25ZM396.406 172.25H398.656V224H396.406V172.25ZM444.156 172.25H446.406V224H444.156V172.25ZM439.656 172.25H441.906V224H439.656V172.25ZM435.156 172.25H437.406V224H435.156V172.25ZM430.656 172.25H432.906V224H430.656V172.25ZM489.094 199.094L486.844 195.375V172.25H489.094V199.094ZM493.594 206.469L491.344 202.688V172.25H493.594V206.469ZM498.094 213.938L495.844 210.125V172.25H498.094V213.938ZM465.844 197.156L468.094 200.875V224H465.844V197.156ZM461.344 189.781L463.594 193.562V224H461.344V189.781ZM456.844 182.312L459.094 186.125V224H456.844V182.312ZM457.625 172.25H460.25L492.062 224H489.438L457.625 172.25ZM462.938 172.25H465.594L497.375 224H494.688L462.938 172.25ZM468.219 172.25H470.844L500.344 220.344V172.25H502.594V224C502.594 224 501.708 224 499.938 224L468.219 172.25ZM454.594 175.906V224H452.344V172.25C452.344 172.25 453.24 172.25 455.031 172.25L486.75 224H484.156L454.594 175.906ZM519.781 224H517.531V172.25H519.781V224ZM515.281 224H513.031V172.25H515.281V224ZM510.781 224H508.531V172.25H510.781V224ZM524.281 212.75H548.219V215H524.281V217.25H548.219V219.5H524.281V221.75H548.219V224H522.031V172.25H548.219V174.5H524.281V176.75H548.219V179H524.281V181.25H548.219V183.5H524.281V192.5H536.562V194.75H524.281V197H536.562V199.25H524.281V201.5H536.562V203.75H524.281V212.75Z" fill="white"/>
</svg>
