<svg width="1324" height="657" viewBox="0 0 1324 657" fill="none" xmlns="http://www.w3.org/2000/svg">
<rect width="1324" height="656.754" fill="black"/>
<path d="M350.735 140.394H658.82V325.245H350.735V140.394Z" fill="#2C2C2C"/>
<path d="M973.067 140.394C968.671 152.717 964.176 165.041 959.581 177.364C955.185 189.688 950.69 202.011 946.094 214.334C941.699 226.658 937.203 238.981 932.608 251.305C928.213 263.628 923.717 275.951 919.122 288.275C914.726 300.598 910.231 312.922 905.636 325.245H732.113C724.721 304.706 717.228 284.167 709.636 263.628C702.244 243.089 694.851 222.55 687.459 202.011C680.066 181.472 672.574 160.933 664.982 140.394H798.645C799.844 146.802 801.043 153.21 802.241 159.618C803.64 165.862 804.939 172.188 806.137 178.596C807.336 185.005 808.535 191.413 809.734 197.821C810.933 204.229 812.131 210.637 813.33 217.045C814.529 223.454 815.728 229.862 816.926 236.27C818.325 242.514 819.624 248.84 820.822 255.248C821.022 255.248 821.122 255.248 821.122 255.248C821.322 255.248 821.422 255.248 821.422 255.248C822.421 249.826 823.42 244.403 824.419 238.981C825.618 233.395 826.716 227.89 827.715 222.468C828.714 217.045 829.713 211.623 830.712 206.201C831.911 200.614 833.01 195.11 834.009 189.688C835.208 184.101 836.307 178.596 837.306 173.174C838.305 167.752 839.304 162.33 840.303 156.907C841.501 151.321 842.6 145.816 843.599 140.394H973.067Z" fill="#2C2C2C"/>
<path d="M664.982 140.394H732.761V325.245H664.982V140.394Z" fill="#2C2C2C"/>
<path d="M480.036 331.467H547.566V444.016H480.036V331.467Z" fill="#2C2C2C"/>
<path d="M537.291 331.407H658.82C658.82 337.486 658.82 343.648 658.82 349.892C658.82 355.971 658.82 362.133 658.82 368.377C658.82 374.456 658.82 380.618 658.82 386.862C658.82 392.941 658.82 399.103 658.82 405.347C658.82 411.427 658.82 417.588 658.82 423.832C658.82 439.277 658.82 454.723 658.82 470.168C658.82 485.449 658.82 500.812 658.82 516.258H512.669L472.896 427.529C472.896 427.365 472.791 427.283 472.58 427.283C472.58 427.283 472.475 427.283 472.265 427.283C472.265 427.283 472.265 427.365 472.265 427.529C472.265 441.989 472.265 456.777 472.265 471.893C472.265 487.01 472.265 501.798 472.265 516.258H350.735C350.735 503.934 350.735 491.611 350.735 479.287C350.735 466.964 350.735 454.641 350.735 442.317C350.735 429.994 350.735 417.67 350.735 405.347C350.735 393.024 350.735 380.7 350.735 368.377C350.735 356.053 350.735 343.73 350.735 331.407H492.151L536.659 433.691C536.87 433.691 536.975 433.691 536.975 433.691C537.185 433.691 537.291 433.691 537.291 433.691C537.291 433.527 537.291 433.444 537.291 433.444V331.407Z" fill="#2C2C2C"/>
<path d="M859.61 331.407C878.673 331.407 895.277 333.543 909.42 337.815C923.769 341.923 935.555 347.591 944.78 354.821C954.209 361.886 961.28 369.938 965.995 378.975C970.71 388.012 973.067 397.378 973.067 407.072C973.067 417.424 970.607 427.283 965.688 436.648C960.973 445.85 953.799 454.066 944.165 461.295C934.736 468.525 922.949 474.276 908.806 478.548C894.662 482.656 878.263 484.71 859.61 484.71H793.504C793.504 484.71 793.402 484.792 793.197 484.956C793.197 484.956 793.094 484.956 792.889 484.956C792.889 484.956 792.889 485.038 792.889 485.203V516.258H664.982C664.982 505.249 664.982 494.24 664.982 483.231C664.982 472.222 664.982 461.213 664.982 450.204C664.982 439.195 664.982 428.186 664.982 417.177C664.982 406.169 664.982 395.16 664.982 384.151C664.982 375.278 664.982 366.487 664.982 357.779C664.982 348.906 664.982 340.115 664.982 331.407H859.61ZM821.791 431.226C827.941 431.226 833.065 430.405 837.165 428.761C841.47 426.954 844.647 424.736 846.697 422.107C848.746 419.314 849.771 416.52 849.771 413.727C849.771 410.769 848.746 408.058 846.697 405.593C844.647 402.964 841.572 400.828 837.472 399.185C833.373 397.542 828.146 396.721 821.791 396.721H793.504C793.299 396.721 793.094 396.803 792.889 396.967C792.889 396.967 792.889 397.049 792.889 397.214V430.98C793.094 430.98 793.197 431.062 793.197 431.226C793.402 431.226 793.504 431.226 793.504 431.226H821.791Z" fill="#2C2C2C"/>
</svg>
