<svg width="940" height="400" fill="none" xmlns="http://www.w3.org/2000/svg"><path fill="#272727" d="M0 0h940v400H0z"/><path d="M391.906 172.25h2.25V224h-2.25v-51.75zm13.5 0h2.25v40.5h18V215h-18v2.25h18v2.25h-18v2.25h18V224h-20.25v-51.75zm-4.5 0h2.25V224h-2.25v-51.75zm-4.5 0h2.25V224h-2.25v-51.75zm47.75 0h2.25V224h-2.25v-51.75zm-4.5 0h2.25V224h-2.25v-51.75zm-4.5 0h2.25V224h-2.25v-51.75zm-4.5 0h2.25V224h-2.25v-51.75zm58.438 26.844l-2.25-3.719V172.25h2.25v26.844zm4.5 7.375l-2.25-3.781V172.25h2.25v34.219zm4.5 7.469l-2.25-3.813V172.25h2.25v41.688zm-32.25-16.782l2.25 3.719V224h-2.25v-26.844zm-4.5-7.375l2.25 3.781V224h-2.25v-34.219zm-4.5-7.469l2.25 3.813V224h-2.25v-41.688zm.781-10.062h2.625L492.062 224h-2.624l-31.813-51.75zm5.313 0h2.656L497.375 224h-2.687l-31.75-51.75zm5.281 0h2.625l29.5 48.094V172.25h2.25V224h-2.656l-31.719-51.75zm-13.625 3.656V224h-2.25v-51.75h2.687L486.75 224h-2.594l-29.562-48.094zM519.781 224h-2.25v-51.75h2.25V224zm-4.5 0h-2.25v-51.75h2.25V224zm-4.5 0h-2.25v-51.75h2.25V224zm13.5-11.25h23.938V215h-23.938v2.25h23.938v2.25h-23.938v2.25h23.938V224h-26.188v-51.75h26.188v2.25h-23.938v2.25h23.938V179h-23.938v2.25h23.938v2.25h-23.938v9h12.281v2.25h-12.281V197h12.281v2.25h-12.281v2.25h12.281v2.25h-12.281v9z" fill="#fff"/></svg>