<svg width="1262" height="657" viewBox="0 0 1262 657" fill="none" xmlns="http://www.w3.org/2000/svg">
<rect width="1262" height="657" fill="url(#paint0_linear_17_2)"/>
<g clip-path="url(#clip0_17_2)">
<path d="M610.312 284.404C608.373 281.018 609.524 276.687 612.884 274.731L631.012 264.18C634.372 262.225 638.668 263.385 640.608 266.772L701.216 372.596C703.156 375.983 702.005 380.313 698.645 382.269L680.516 392.82C677.156 394.775 672.86 393.615 670.921 390.228L610.312 284.404Z" fill="white" fill-opacity="0.6"/>
<path d="M620.779 266.772C622.719 263.385 627.015 262.225 630.374 264.18L648.503 274.731C651.863 276.687 653.014 281.018 651.075 284.404L590.466 390.228C588.527 393.615 584.231 394.775 580.871 392.82L562.742 382.269C559.382 380.313 558.231 375.983 560.171 372.596L620.779 266.772Z" fill="white"/>
<path d="M619.627 355.873C619.627 353.266 621.724 351.152 624.31 351.152H635.933C638.52 351.152 640.616 353.266 640.616 355.873V367.59C640.616 370.197 638.52 372.311 635.933 372.311H624.31C621.724 372.311 619.627 370.197 619.627 367.59V355.873Z" fill="white"/>
</g>
<defs>
<linearGradient id="paint0_linear_17_2" x1="0" y1="0" x2="1261.77" y2="639.713" gradientUnits="userSpaceOnUse">
<stop offset="0.391263" stop-color="#611DF1"/>
<stop offset="1" stop-color="#1561DF"/>
</linearGradient>
<clipPath id="clip0_17_2">
<rect width="144" height="131" fill="white" transform="translate(559 263)"/>
</clipPath>
</defs>
</svg>
