<svg width="940" height="400" fill="none" xmlns="http://www.w3.org/2000/svg"><path fill="url(#paint0_linear_16_9)" d="M0 0h940v400H0z"/><path d="M353.4 220h11.52l-25.12-56h-11.52l-25.12 56h11.44l4.8-10.56h29.28L353.4 220zm-8.96-20.4h-20.8l10.4-23.84 10.4 23.84zm64.062 6.08c-3.68 3.68-9.2 5.68-14.08 5.68-13.84 0-19.2-9.68-19.28-18.96-.08-9.36 5.76-19.44 19.28-19.44 4.88 0 9.84 1.68 13.52 5.28l7.04-6.8c-5.76-5.68-12.96-8.56-20.56-8.56-20.24 0-29.76 14.88-29.68 29.52.08 14.56 8.88 28.88 29.68 28.88 8.08 0 15.52-2.64 21.28-8.32l-7.2-7.28zm52.812 0c-3.68 3.68-9.2 5.68-14.08 5.68-13.84 0-19.2-9.68-19.28-18.96-.08-9.36 5.76-19.44 19.28-19.44 4.88 0 9.84 1.68 13.52 5.28l7.04-6.8c-5.76-5.68-12.96-8.56-20.56-8.56-20.24 0-29.76 14.88-29.68 29.52.08 14.56 8.88 28.88 29.68 28.88 8.08 0 15.52-2.64 21.28-8.32l-7.2-7.28z" fill="#fff"/><path d="M518.379 186c-2.24-3.92-7.28-6.4-12.56-6.4-11.52-.08-20.56 7.04-20.56 20.64 0 13.84 8.64 21.04 20.32 20.96 4.4-.08 10.56-2.32 12.8-6.96l.48 5.76h9.2v-39.44h-9.36l-.32 5.44zm-11.68 2.32c15.36 0 15.36 23.92 0 23.92-6.48 0-11.68-4.48-11.68-12s5.2-11.92 11.68-11.92zm51.466 23.2c-6.64 0-11.2-5.04-11.2-11.2 0-6.16 4.16-11.2 11.2-11.2 7.04 0 11.2 5.04 11.2 11.2 0 6.16-4.56 11.2-11.2 11.2zm-12.08 24.96v-21.12c2.8 4.32 8.96 5.6 13.12 5.6 12.64 0 19.92-9.12 19.92-20.64 0-11.6-8.08-20.64-20.24-20.64-4.48 0-9.76 1.92-12.8 6.32l-.64-5.44h-9.12v55.92h9.76zm62.08-24.96c-6.64 0-11.2-5.04-11.2-11.2 0-6.16 4.16-11.2 11.2-11.2 7.04 0 11.2 5.04 11.2 11.2 0 6.16-4.56 11.2-11.2 11.2zm-12.08 24.96v-21.12c2.8 4.32 8.96 5.6 13.12 5.6 12.64 0 19.92-9.12 19.92-20.64 0-11.6-8.08-20.64-20.24-20.64-4.48 0-9.76 1.92-12.8 6.32l-.64-5.44h-9.12v55.92h9.76z" fill="#000"/><defs><linearGradient id="paint0_linear_16_9" x1="0" y1="200" x2="940" y2="200" gradientUnits="userSpaceOnUse"><stop stop-color="#63258E"/><stop offset="1" stop-color="#1557D2"/></linearGradient></defs></svg>