<svg width="940" height="400" fill="none" xmlns="http://www.w3.org/2000/svg"><path fill="#C90100" d="M0 0h940v400H0z"/><path d="M384.203 180.852L368.734 228h-12.461l21.133-56.875h7.93l-1.133 9.727zM397.055 228l-15.508-47.148-1.25-9.727h8.008L409.555 228h-12.5zm-.703-21.172v9.18h-30.04v-9.18h30.04zM426 168v60h-11.289v-60H426zm23.633 60h-11.328v-46.016c0-3.203.625-5.898 1.875-8.086 1.276-2.213 3.06-3.88 5.351-5 2.318-1.145 5.065-1.718 8.242-1.718 1.042 0 2.045.078 3.008.234.964.13 1.901.3 2.813.508l-.117 8.476a9.795 9.795 0 00-1.563-.273 20.512 20.512 0 00-1.914-.078c-1.354 0-2.513.234-3.477.703a4.697 4.697 0 00-2.148 1.992c-.495.886-.742 1.966-.742 3.242V228zm8.437-42.266v7.969h-26.054v-7.969h26.054z" fill="#fff"/><mask id="a" maskUnits="userSpaceOnUse" x="469.375" y="163" width="113" height="65" fill="#000"><path fill="#fff" d="M469.375 163h113v65h-113z"/><path d="M482.625 191.953V225h-11.25v-42.266h10.586l.664 9.219zm12.734-9.492l-.195 10.43a26.636 26.636 0 00-1.992-.196 20.278 20.278 0 00-2.07-.117c-1.589 0-2.969.208-4.141.625-1.146.391-2.109.977-2.891 1.758-.755.781-1.328 1.732-1.718 2.851-.365 1.12-.573 2.396-.625 3.829l-2.266-.703c0-2.735.273-5.248.82-7.54.547-2.317 1.341-4.336 2.383-6.054 1.068-1.719 2.37-3.047 3.906-3.985 1.537-.937 3.295-1.406 5.274-1.406.625 0 1.263.052 1.914.156.651.079 1.185.196 1.601.352zm23.985 43.32c-3.282 0-6.224-.521-8.828-1.562-2.605-1.068-4.818-2.539-6.641-4.414a19.623 19.623 0 01-4.141-6.524c-.963-2.5-1.445-5.156-1.445-7.969v-1.562c0-3.203.456-6.133 1.367-8.789.912-2.656 2.214-4.961 3.906-6.914 1.719-1.953 3.803-3.451 6.25-4.492 2.448-1.068 5.209-1.602 8.282-1.602 2.995 0 5.651.495 7.968 1.485 2.318.989 4.258 2.395 5.821 4.218 1.588 1.823 2.786 4.011 3.594 6.563.807 2.526 1.211 5.338 1.211 8.437v4.688h-33.594v-7.5h22.539v-.86c0-1.562-.287-2.955-.86-4.179a6.628 6.628 0 00-2.5-2.969c-1.119-.729-2.552-1.094-4.296-1.094-1.485 0-2.761.326-3.829.977-1.067.651-1.94 1.562-2.617 2.734-.651 1.172-1.146 2.552-1.484 4.141-.313 1.562-.469 3.281-.469 5.156v1.562c0 1.693.234 3.256.703 4.688.495 1.432 1.185 2.669 2.071 3.711a9.443 9.443 0 003.281 2.422c1.302.573 2.773.859 4.414.859 2.031 0 3.919-.39 5.664-1.172 1.771-.807 3.294-2.018 4.57-3.632l5.469 5.937c-.885 1.276-2.096 2.5-3.633 3.672-1.51 1.172-3.333 2.135-5.469 2.891-2.135.729-4.57 1.093-7.304 1.093zm48.711-10V165h11.328v60h-10.195l-1.133-9.219zm-26.719-11.406v-.82c0-3.229.365-6.159 1.094-8.789.729-2.657 1.797-4.935 3.203-6.836 1.406-1.901 3.138-3.373 5.195-4.414 2.057-1.042 4.401-1.563 7.031-1.563 2.474 0 4.636.521 6.485 1.563 1.875 1.041 3.463 2.526 4.765 4.453 1.329 1.901 2.396 4.153 3.203 6.758.808 2.578 1.394 5.403 1.758 8.476V205c-.364 2.943-.95 5.677-1.758 8.203-.807 2.526-1.874 4.74-3.203 6.641-1.302 1.875-2.89 3.333-4.765 4.375-1.875 1.041-4.063 1.562-6.563 1.562-2.63 0-4.974-.534-7.031-1.601-2.031-1.068-3.75-2.565-5.156-4.492-1.38-1.928-2.435-4.193-3.164-6.797-.729-2.605-1.094-5.443-1.094-8.516zm11.25-.82v.82c0 1.745.13 3.372.391 4.883.286 1.51.742 2.851 1.367 4.023.651 1.146 1.484 2.045 2.5 2.696 1.041.625 2.304.937 3.789.937 1.927 0 3.515-.43 4.765-1.289 1.25-.885 2.201-2.096 2.852-3.633.677-1.536 1.068-3.307 1.172-5.312v-5.118c-.078-1.64-.313-3.111-.703-4.414-.365-1.328-.912-2.46-1.641-3.398a7.23 7.23 0 00-2.656-2.188c-1.042-.52-2.279-.781-3.711-.781-1.458 0-2.708.339-3.75 1.016-1.042.651-1.888 1.549-2.539 2.695-.625 1.146-1.094 2.5-1.406 4.063-.287 1.536-.43 3.203-.43 5z"/></mask><path d="M482.625 191.953h2v-.072l-.005-.072-1.995.144zm0 33.047v2h2v-2h-2zm-11.25 0h-2v2h2v-2zm0-42.266v-2h-2v2h2zm10.586 0l1.995-.143-.134-1.857h-1.861v2zm13.398-.273l2 .037.026-1.413-1.323-.497-.703 1.873zm-.195 10.43l-.283 1.98 2.24.32.043-2.263-2-.037zm-1.992-.196l-.206 1.99.036.003.037.003.133-1.996zm-6.211.508l.645 1.893.013-.004.012-.004-.67-1.885zm-2.891 1.758l-1.414-1.414-.012.012-.012.012 1.438 1.39zm-1.718 2.851l-1.889-.658-.007.019-.006.02 1.902.619zm-.625 3.829l-.593 1.91 2.496.775.095-2.613-1.998-.072zm-2.266-.703h-2v1.473l1.407.437.593-1.91zm.82-7.54l1.946.465.001-.005-1.947-.46zm2.383-6.054l-1.699-1.056-.006.01-.005.009 1.71 1.037zm11.094-5.235l-.316 1.975.039.006.039.005.238-1.986zm16.758 42.11l-.759 1.85.008.004.008.003.743-1.857zm-6.641-4.414l-1.444 1.383.005.006.005.005 1.434-1.394zm-4.141-6.524l-1.866.72.003.006 1.863-.726zm3.828-25.234l-1.501-1.321-.005.005-.005.006 1.511 1.31zm6.25-4.492l.784 1.84.008-.004.008-.003-.8-1.833zm22.071 4.101l-1.519 1.302.006.006.005.006 1.508-1.314zm3.594 6.563l-1.907.603.001.006 1.906-.609zm1.211 13.125v2h2v-2h-2zm-33.594 0h-2v2h2v-2zm0-7.5v-2h-2v2h2zm22.539 0v2h2v-2h-2zm-.86-5.039l-1.832.801.01.024.011.023 1.811-.848zm-13.242-.352l-1.731-1-.009.014-.008.015 1.748.971zm-1.484 4.141l-1.956-.417-.003.012-.002.013 1.961.392zm.234 11.406l-1.901.622.006.016.005.015 1.89-.653zm2.071 3.711l-1.524 1.295.009.011.009.011 1.506-1.317zm3.281 2.422l-.819 1.824.006.003.007.003.806-1.83zm10.078-.313l.817 1.826.013-.006-.83-1.82zm4.57-3.632l1.471-1.355-1.587-1.724-1.453 1.838 1.569 1.241zm5.469 5.937l1.643 1.14.914-1.316-1.086-1.179-1.471 1.355zm-3.633 3.672l-1.213-1.59-.006.005-.007.005 1.226 1.58zm-5.469 2.891l.647 1.892.01-.003.01-.004-.667-1.885zm41.407-8.907h-2v.123l.015.121 1.985-.244zm0-50.781v-2h-2v2h2zm11.328 0h2v-2h-2v2zm0 60v2h2v-2h-2zm-10.195 0l-1.986.244.216 1.756h1.77v-2zm-26.758-30.234l1.927.534.001-.005-1.928-.529zm21.914-11.25l-.982 1.742.01.006.972-1.748zm4.765 4.453l-1.657 1.119.009.013.009.013 1.639-1.145zm3.203 6.758l-1.91.592.002.005 1.908-.597zm1.758 8.476h2v-.118l-.014-.118-1.986.236zm0 1.797l1.985.246.015-.123V205h-2zm-4.961 14.844l-1.639-1.146-.003.005 1.642 1.141zm-18.359 4.336l-.931 1.77.01.005.921-1.775zm-5.156-4.492l-1.626 1.164.005.007.005.007 1.616-1.178zm7.383-10.43l-1.971.34.002.016.004.016 1.965-.372zm1.367 4.023l-1.765.941.013.024.013.023 1.739-.988zm2.5 2.696l-1.08 1.683.025.016.026.016 1.029-1.715zm8.554-.352l1.133 1.648.012-.008.011-.008-1.156-1.632zm2.852-3.633l-1.83-.806-.006.013-.006.013 1.842.78zm1.172-5.312l1.997.103.003-.051v-.052h-2zm0-5.118h2v-.047l-.002-.048-1.998.095zm-.703-4.414l-1.929.53.006.023.007.022 1.916-.575zm-1.641-3.398l-1.6 1.2.011.014.01.014 1.579-1.228zm-2.656-2.188l-.895 1.789.009.005.009.004.877-1.798zm-7.461.235l1.06 1.696.015-.01.015-.009-1.09-1.677zm-2.539 2.695l-1.739-.988-.009.015-.008.015 1.756.958zm-1.406 4.063l-1.962-.393-.002.013-.002.013 1.966.367zm-72.391-6.602V225h4v-33.047h-4zm2 31.047h-11.25v4h11.25v-4zm-9.25 2v-42.266h-4V225h4zm-2-40.266h10.586v-4h-10.586v4zm8.591-1.856l.664 9.219 3.99-.288-.664-9.218-3.99.287zm13.394-.455l-.196 10.43 4 .075.195-10.43-3.999-.075zm2.087 8.488a28.77 28.77 0 00-2.142-.211l-.266 3.991c.75.05 1.361.111 1.842.18l.566-3.96zm-2.069-.205c-.81-.084-1.57-.128-2.276-.128v4c.543 0 1.163.034 1.864.107l.412-3.979zm-2.276-.128c-1.757 0-3.374.23-4.811.741l1.34 3.769c.906-.323 2.05-.51 3.471-.51v-4zm-4.786.732c-1.408.48-2.642 1.219-3.66 2.237l2.829 2.828c.544-.545 1.237-.977 2.121-1.279l-1.29-3.786zm-3.684 2.261c-.974 1.008-1.692 2.215-2.169 3.583l3.777 1.317c.304-.871.732-1.565 1.268-2.12l-2.876-2.78zm-2.182 3.622c-.433 1.33-.665 2.796-.722 4.375l3.997.145c.047-1.285.232-2.372.528-3.281l-3.803-1.239zm1.869 2.537l-2.265-.703-1.186 3.821 2.266.703 1.185-3.821zm-.858 1.208c0-2.603.26-4.958.766-7.075l-3.891-.929c-.589 2.466-.875 5.137-.875 8.004h4zm.767-7.08c.507-2.151 1.231-3.967 2.146-5.478l-3.42-2.073c-1.168 1.927-2.033 4.147-2.619 6.632l3.893.919zm2.135-5.459c.923-1.486 2.011-2.577 3.249-3.332l-2.083-3.415c-1.835 1.12-3.352 2.685-4.564 4.636l3.398 2.111zm3.249-3.332c1.192-.728 2.582-1.114 4.232-1.114v-4c-2.309 0-4.434.551-6.315 1.699l2.083 3.415zm4.232-1.114c.513 0 1.046.043 1.598.131l.632-3.95a14.224 14.224 0 00-2.23-.181v4zm1.676.142c.559.067.922.158 1.137.239l1.405-3.746c-.619-.232-1.323-.375-2.066-.464l-.476 3.971zm25.824 39.686c-3.07 0-5.754-.487-8.086-1.419l-1.485 3.714c2.877 1.15 6.078 1.705 9.571 1.705v-4zm-8.07-1.413c-2.369-.971-4.348-2.294-5.965-3.957l-2.868 2.788c2.029 2.086 4.477 3.706 7.316 4.87l1.517-3.701zm-5.955-3.947a17.609 17.609 0 01-3.721-5.866l-3.727 1.452a21.588 21.588 0 004.56 7.181l2.888-2.767zm-3.718-5.859c-.871-2.259-1.312-4.671-1.312-7.25h-4c0 3.047.523 5.948 1.579 8.689l3.733-1.439zm-1.312-7.25v-1.562h-4v1.562h4zm0-1.562c0-3.013.429-5.72 1.259-8.14l-3.783-1.298c-.993 2.892-1.476 6.045-1.476 9.438h4zm1.259-8.14c.835-2.435 2.015-4.51 3.526-6.253l-3.023-2.62c-1.875 2.163-3.299 4.697-4.286 7.575l3.783 1.298zm3.516-6.242c1.517-1.723 3.353-3.046 5.532-3.973l-1.567-3.681c-2.716 1.156-5.047 2.829-6.968 5.012l3.003 2.642zm5.548-3.98c2.161-.942 4.643-1.435 7.482-1.435v-4c-3.307 0-6.346.575-9.081 1.768l1.599 3.667zm7.482-1.435c2.775 0 5.156.458 7.183 1.324l1.571-3.679c-2.608-1.113-5.539-1.645-8.754-1.645v4zm7.183 1.324c2.05.875 3.735 2.103 5.087 3.681l3.037-2.603c-1.772-2.068-3.967-3.653-6.553-4.757l-1.571 3.679zm5.098 3.693c1.39 1.595 2.461 3.534 3.195 5.852l3.813-1.206c-.881-2.786-2.205-5.223-3.992-7.274l-3.016 2.628zm3.196 5.858c.735 2.299 1.117 4.902 1.117 7.828h4c0-3.271-.427-6.293-1.306-9.046l-3.811 1.218zm1.117 7.828v4.688h4v-4.688h-4zm2 2.688h-33.594v4h33.594v-4zm-31.594 2v-7.5h-4v7.5h4zm-2-5.5h22.539v-4h-22.539v4zm24.539-2v-.86h-4v.86h4zm0-.86c0-1.81-.333-3.499-1.048-5.027l-3.623 1.696c.431.92.671 2.016.671 3.331h4zm-1.027-4.981a8.639 8.639 0 00-3.241-3.843l-2.183 3.352c.786.511 1.365 1.194 1.759 2.094l3.665-1.603zm-3.241-3.843c-1.53-.996-3.373-1.418-5.388-1.418v4c1.474 0 2.496.308 3.205.77l2.183-3.352zm-5.388-1.418c-1.783 0-3.434.394-4.87 1.269l2.083 3.415c.699-.426 1.6-.684 2.787-.684v-4zm-4.87 1.269c-1.376.84-2.477 2.004-3.307 3.442l3.463 2.001c.524-.907 1.168-1.565 1.927-2.028l-2.083-3.415zm-3.324 3.471c-.765 1.377-1.321 2.952-1.692 4.695l3.912.834c.306-1.434.74-2.62 1.277-3.587l-3.497-1.942zm-1.697 4.72c-.343 1.711-.508 3.564-.508 5.548h4c0-1.766.147-3.351.43-4.764l-3.922-.784zm-.508 5.548v1.562h4v-1.562h-4zm0 1.562c0 1.879.26 3.654.802 5.31l3.802-1.244c-.395-1.208-.604-2.558-.604-4.066h-4zm.813 5.341c.567 1.642 1.374 3.103 2.437 4.353l3.047-2.59c-.707-.833-1.281-1.846-1.703-3.069l-3.781 1.306zm2.455 4.375a11.437 11.437 0 003.968 2.929l1.638-3.649a7.446 7.446 0 01-2.595-1.914l-3.011 2.634zm3.981 2.935c1.592.701 3.344 1.029 5.22 1.029v-4c-1.406 0-2.596-.244-3.609-.69l-1.611 3.661zm5.22 1.029c2.295 0 4.463-.443 6.481-1.346l-1.634-3.651c-1.472.659-3.08.997-4.847.997v4zm6.494-1.352c2.076-.947 3.848-2.363 5.309-4.212l-3.138-2.481c-1.091 1.38-2.365 2.386-3.831 3.053l1.66 3.64zm2.269-4.098l5.469 5.938 2.942-2.71-5.469-5.937-2.942 2.709zm5.297 3.443c-.742 1.068-1.793 2.147-3.203 3.222l2.426 3.18c1.664-1.269 3.034-2.638 4.063-4.122l-3.286-2.28zm-3.216 3.232c-1.313 1.019-2.939 1.888-4.909 2.585l1.333 3.771c2.301-.814 4.321-1.871 6.028-3.196l-2.452-3.16zm-4.889 2.578c-1.888.645-4.099.986-6.658.986v4c2.909 0 5.569-.387 7.951-1.201l-1.293-3.785zm44.053-7.014V165h-4v50.781h4zm-2-48.781h11.328v-4h-11.328v4zm9.328-2v60h4v-60h-4zm2 58h-10.195v4h10.195v-4zm-8.21 1.756l-1.133-9.219-3.97.488 1.132 9.219 3.971-.488zm-27.837-20.381v-.82h-4v.82h4zm0-.82c0-3.081.348-5.827 1.021-8.255l-3.855-1.069c-.785 2.833-1.166 5.946-1.166 9.324h4zm1.022-8.26c.675-2.457 1.645-4.503 2.883-6.176l-3.216-2.379c-1.575 2.129-2.74 4.641-3.524 7.496l3.857 1.059zm2.883-6.176c1.226-1.657 2.718-2.922 4.491-3.819l-1.807-3.569c-2.343 1.186-4.313 2.864-5.9 5.009l3.216 2.379zm4.491-3.819c1.74-.881 3.767-1.347 6.127-1.347v-4c-2.899 0-5.56.576-7.934 1.778l1.807 3.569zm6.127-1.347c2.188 0 4 .458 5.503 1.305l1.963-3.485c-2.195-1.236-4.705-1.82-7.466-1.82v4zm5.513 1.311c1.578.876 2.939 2.136 4.08 3.824l3.315-2.239c-1.463-2.165-3.279-3.875-5.452-5.082l-1.943 3.497zm4.098 3.85c1.191 1.705 2.176 3.764 2.932 6.205l3.821-1.185c-.858-2.767-2.009-5.214-3.474-7.311l-3.279 2.291zm2.934 6.21c.765 2.445 1.328 5.147 1.68 8.115l3.972-.472c-.377-3.178-.986-6.126-1.835-8.838l-3.817 1.195zm1.666 7.879V205h4v-1.797h-4zm.015 1.551c-.351 2.834-.912 5.445-1.678 7.84l3.811 1.218c.849-2.657 1.459-5.514 1.837-8.566l-3.97-.492zm-1.678 7.84c-.754 2.362-1.739 4.389-2.937 6.104l3.279 2.291c1.458-2.087 2.609-4.487 3.469-7.177l-3.811-1.218zm-2.94 6.109c-1.139 1.64-2.504 2.884-4.095 3.767l1.943 3.497c2.159-1.2 3.972-2.873 5.437-4.982l-3.285-2.282zm-4.095 3.767c-1.532.852-3.374 1.311-5.591 1.311v4c2.783 0 5.316-.582 7.534-1.814l-1.943-3.497zm-5.591 1.311c-2.353 0-4.373-.475-6.11-1.376l-1.842 3.55c2.378 1.234 5.045 1.826 7.952 1.826v-4zm-6.1-1.372c-1.75-.919-3.238-2.21-4.472-3.9l-3.231 2.357c1.579 2.164 3.529 3.868 5.841 5.084l1.862-3.541zm-4.461-3.886c-1.227-1.713-2.189-3.761-2.864-6.172l-3.852 1.079c.783 2.797 1.93 5.281 3.464 7.422l3.252-2.329zm-2.864-6.172c-.674-2.406-1.02-5.061-1.02-7.976h-4c0 3.231.383 6.253 1.168 9.055l3.852-1.079zm6.23-8.796v.82h4v-.82h-4zm0 .82c0 1.843.137 3.586.42 5.223l3.941-.68c-.238-1.384-.361-2.897-.361-4.543h-4zm.426 5.255c.318 1.679.833 3.217 1.567 4.592l3.529-1.882c-.516-.968-.912-2.112-1.166-3.455l-3.93.745zm1.593 4.639c.796 1.401 1.846 2.549 3.159 3.391l2.159-3.367c-.718-.46-1.334-1.109-1.84-2l-3.478 1.976zm3.21 3.423c1.415.848 3.051 1.222 4.818 1.222v-4c-1.202 0-2.092-.251-2.76-.652l-2.058 3.43zm4.818 1.222c2.222 0 4.235-.497 5.898-1.641l-2.266-3.296c-.836.575-2 .937-3.632.937v4zm5.921-1.657c1.581-1.119 2.755-2.638 3.538-4.485l-3.684-1.56c-.519 1.226-1.246 2.129-2.166 2.781l2.312 3.264zm3.526-4.458c.792-1.798 1.225-3.814 1.339-6.016l-3.994-.207c-.094 1.809-.443 3.334-1.005 4.61l3.66 1.613zm1.342-6.119v-5.118h-4v5.118h4zm-.002-5.213c-.085-1.77-.34-3.407-.786-4.893l-3.831 1.149c.335 1.118.549 2.424.621 3.935l3.996-.191zm-.773-4.848c-.423-1.542-1.076-2.921-1.99-4.097l-3.158 2.456c.545.699.985 1.585 1.291 2.7l3.857-1.059zm-1.969-4.069a9.238 9.238 0 00-3.379-2.785l-1.754 3.595c.787.384 1.423.91 1.933 1.59l3.2-2.4zm-3.362-2.776c-1.376-.688-2.932-.993-4.605-.993v4c1.192 0 2.109.217 2.816.57l1.789-3.577zm-4.605-.993c-1.777 0-3.421.417-4.84 1.339l2.18 3.354c.664-.432 1.52-.693 2.66-.693v-4zm-4.81 1.32c-1.344.84-2.415 1.99-3.218 3.403l3.478 1.976c.499-.879 1.12-1.525 1.86-1.987l-2.12-3.392zm-3.235 3.433c-.74 1.357-1.268 2.91-1.612 4.628l3.923.785c.281-1.407.691-2.562 1.201-3.497l-3.512-1.916zm-1.616 4.654c-.313 1.674-.464 3.465-.464 5.367h4c0-1.692.135-3.235.396-4.634l-3.932-.733z" fill="#fff" mask="url(#a)"/><path d="M504.984 200.854c0 11.013.322 0-.37 0-1.081 0-2.152 1.22-1.835 2.329.273.954 1.958-.253 1.958.876m5.464-2.229h-2.79c-.447 0-.855-.118-1.294-.182-.114-.017-.44-.016-.44-.185 0-.066.074-.288.145-.308.251-.072.613-.003.873-.003h1.012c.287 0 1.141.113.854.113" stroke="#C90100" stroke-width="3" stroke-linecap="round"/><path d="M510.936 204.261h-3.393c-.621 0-1.294.074-1.913-.003-.176-.022.437-.323.468-.336.787-.335 1.63-.596 2.45-.836.097-.028.758-.179.632-.131-1.345.504-2.74.84-4.124 1.215-.897.243-1.788.521-2.692.735-.114.027-.308.037-.135.123.256.128.428.359.709.433.867.228 1.752.214 2.639.214 1.204 0 2.434-.028 3.634-.116.206-.016.517-.038.707-.123a.52.52 0 01.245-.044c.09 0-.182-.013-.27.003-.345.063-.663.336-.993.462-.407.155-.759.298-1.187.371a9.946 9.946 0 01-1.696.125h-.861c-.377 0-.754.022-1.118.126-.206.059-.405.157-.622.157m-23.634-14.757c.68-.313 1.271-.778 1.853-1.244.29-.232.516-.54.805-.766.293-.231.596-.385.904-.591m-.678-.169h.961m-.396 2.827c-.415.164-.764.411-1.118.684-.822.634-1.613 1.333-2.271 2.139-.385.473-.692 1.006-1.021 1.518-.123.191-.221.443-.305.656-.031.079-.09.259-.022.079.054-.143.174-.272.264-.39.38-.493.774-.979 1.2-1.432.609-.649 1.26-1.264 1.885-1.897.283-.288.56-.516.923-.698.143-.071.089.035.044.126-.146.3-.294.599-.436.901-.489 1.042-.975 2.091-1.489 3.119-.083.165-.299.385-.311.566-.007.094-.011-.198.031-.283.105-.209.314-.294.368-.537.026-.119.176-.368.279-.368" stroke="#C90100" stroke-width="3" stroke-linecap="round"/><path d="M480.97 204.374c0-2.577-.079-5.168.053-7.742.018-.353.114-.058-.082.138-.155.155-.238.459-.355.65-.179.294-.338.6-.521.892-.213.339-.433.909-.452 1.313-.022.462-.17 1.838-.17 1.376 0-.92.63-1.802.986-2.61.124-.28.274-.649.427-.902.192-.316.246-.72.453-1.03m29.715 4.934h-.634c-.063 0-.125-.015-.188-.016-.019-.001-.077.01-.095-.004-.059-.047-.232-.029-.312-.029-.138 0-.562.188-.562-.066m1.183 4.304a.701.701 0 00-.205.092c-.022.016-.044.045-.068.056-.054.024-.113.046-.163.074a.375.375 0 01-.106.041c-.039.002-.061-.033-.099-.033m-2.513.296c.086.113.183.196.275.299.071.079.153.123.238.19.017.014.216.137.222.132.06-.047.254-.013.332-.013m66.957 5.655c0-3.746.288-7.591-.34-11.296-.033-.193-.132-.278-.301-.372-.043-.023-.126-.079-.174-.079-.047 0-.043.1-.044.099-.058-.029-.098.379-.099.384-.12.668-.292 1.323-.392 1.995-.322 2.177-.288 4.375-.288 6.569 0 1.05-.049 2.09-.143 3.135-.035.396-.071.793-.071 1.191 0 .222-.019.036-.036-.079-.302-2.056-.107-4.248-.107-6.316v-6.582c0-.951.071-1.933-.015-2.881-.047-.514-.234-.999-.27-1.516-.047-.688-.045-1.358-.071-2.046-.032-.861-.285-1.777-.285-2.652 0-.261-.179-.676-.498-.641-.493.055.228 3.324.316 3.776.211 1.084.245 2.341.253 3.435.015 1.91.102 3.778.321 5.679.128 1.109.284 2.214.352 3.329.093 1.528.04 3.068.04 4.598 0 .812-.083 1.601-.158 2.407-.054.575-.082 1.2-.234 1.757-.095.348-.472 1.748-1.104 1.433-.236-.118-.298-.841-.356-1.053-.258-.933-.285-1.865-.285-2.826 0-3.411.142-6.812.142-10.226 0-2.452.185-4.867.356-7.31.103-1.463.264-2.921.357-4.385.036-.57.142-1.143.142-1.714 0-.206.127-.934-.016-1.092-.083-.093-.614-.063-.76-.119-.335-.13-.266.368-.332.598-.157.542-.404 1.019-.53 1.571-.317 1.385-.57 2.763-.57 4.187 0 1.324.285 2.648.285 3.981 0 .796.147 1.634.289 2.415.203 1.12.067 2.35.067 3.49 0 1.498.023 3.003.075 4.5.032.898.307 1.674.408 2.537.234 2.006.229 4.08.229 6.103m-2.363-.073c-.167.033-.204-.032-.204.12 0 .088.082.124.1.204.028.126-.032.513-.032.385 0-.423-.073-.924.017-1.336.041-.188.072-.396.085-.587.006-.086.137-.828.051-.781-.081.045-.047-.689-.043-.748.02-.335.116-.644.189-.966.065-.284.106-.53.246-.777.064-.111.166-.193.224-.307.065-.125.113-.262.186-.382.124-.205.102-.46.102-.69m-.443-3.921v2.209c0 .09.002.15.034.235.068.184.155.456.17.651.004.052.066.094.069.144.003.068 0 .137 0 .205 0 .165.002.37-.069.511" stroke="#C90100" stroke-width="3" stroke-linecap="round"/><path d="M570.288 213.2c-.177 0-.35-.011-.525-.011-.049 0-.09-.011-.136-.011-.029 0-.054 0-.081.013-.009.004-.044.03-.027.03m.098-.292c-.05-.019-.074-.032-.125-.032-.021 0 .035-.03.049-.044m.151-.509a.595.595 0 00-.13.011m2.244-22.085c-.788 0-1.571-.033-2.357-.033-.271 0-.531.016-.798.031-.428.024-1.049.096-1.444-.096-.03-.014-.078-.09-.04-.122.053-.045.195-.065.253-.08.311-.078.629-.131.946-.18.754-.118 1.472-.203 2.233-.203h-.085c-.746 0-1.492.004-2.238 0-.082 0-.687.037-.694-.097-.009-.186.481-.211.578-.226a12.912 12.912 0 011.522-.13c.036-.001.297.001.262-.003a15.204 15.204 0 00-1.493-.094c-.299-.004-.599-.002-.898-.002-.032 0-.284.03-.314 0-.046-.046.128-.027.192-.04.31-.063.623-.112.935-.162.698-.112 1.41-.15 2.105-.278.229-.042.303-.068.018-.072-.753-.011-1.506-.037-2.259-.065-.208-.008-.417-.033-.626-.033-.042 0 .082-.011.123-.021.224-.056.445-.122.669-.177.674-.167 1.346-.34 2.017-.515.123-.032.244-.068.368-.095.097-.022-.198.016-.296.028-.566.074-1.121.237-1.682.343-.15.029-.302.048-.452.08-.044.009-.171.056-.133.031.092-.062-.136-.041-.051.001m-.227 3.77c.431 0 .82.129 1.216.299.54.232 1.104.558 1.564.926.167.134-.172.116-.249.125a4.273 4.273 0 00-.737.137c-.121.038.118.56-.072.56-.122 0-.132-.257-.179-.342-.006-.01-.109-.206-.114-.196-.03.06.047.187.058.245.028.15.094.265.155.405.021.046.177.294.177.278m-.191 3.819c0-.279-.02-.558-.02-.833 0-.251.02-.496.02-.747 0-.195.073-.365.097-.558.006-.05.028-.098.039-.149.017-.076-.015-.154.021-.225" stroke="#C90100" stroke-width="3" stroke-linecap="round"/><path d="M570.372 193.807c-.206.013-.981.086-.981.452 0 .071.058.186.118.157m0 .019c-.014.073-.04.125-.04.196 0 .047.02.077.02.118m0 0c0 .054.002.094-.02.138" stroke="#C90100" stroke-width="3" stroke-linecap="round"/></svg>